<svg width="18" height="18" viewBox="0 0 18 18" fill="none" xmlns="http://www.w3.org/2000/svg">
<path d="M14.625 3.375H3.375C2.92745 3.375 2.49822 3.55279 2.18176 3.86926C1.86529 4.18572 1.6875 4.61495 1.6875 5.0625V12.9375C1.6875 13.3851 1.86529 13.8143 2.18176 14.1307C2.49822 14.4472 2.92745 14.625 3.375 14.625H14.625C15.0726 14.625 15.5018 14.4472 15.8182 14.1307C16.1347 13.8143 16.3125 13.3851 16.3125 12.9375V5.0625C16.3125 4.61495 16.1347 4.18572 15.8182 3.86926C15.5018 3.55279 15.0726 3.375 14.625 3.375ZM2.8125 6.75H15.1875V7.875H11.25C11.1008 7.875 10.9577 7.93426 10.8523 8.03975C10.7468 8.14524 10.6875 8.28832 10.6875 8.4375C10.6875 8.88505 10.5097 9.31428 10.1932 9.63074C9.87678 9.94721 9.44755 10.125 9 10.125C8.55245 10.125 8.12322 9.94721 7.80676 9.63074C7.49029 9.31428 7.3125 8.88505 7.3125 8.4375C7.3125 8.28832 7.25324 8.14524 7.14775 8.03975C7.04226 7.93426 6.89918 7.875 6.75 7.875H2.8125V6.75ZM3.375 4.5H14.625C14.7742 4.5 14.9173 4.55926 15.0227 4.66475C15.1282 4.77024 15.1875 4.91332 15.1875 5.0625V5.625H2.8125V5.0625C2.8125 4.91332 2.87176 4.77024 2.97725 4.66475C3.08274 4.55926 3.22582 4.5 3.375 4.5ZM14.625 13.5H3.375C3.22582 13.5 3.08274 13.4407 2.97725 13.3352C2.87176 13.2298 2.8125 13.0867 2.8125 12.9375V9H6.24375C6.37285 9.63579 6.71779 10.2074 7.2201 10.618C7.72242 11.0285 8.35124 11.2528 9 11.2528C9.64876 11.2528 10.2776 11.0285 10.7799 10.618C11.2822 10.2074 11.6271 9.63579 11.7562 9H15.1875V12.9375C15.1875 13.0867 15.1282 13.2298 15.0227 13.3352C14.9173 13.4407 14.7742 13.5 14.625 13.5Z" fill="white"/>
</svg>
