<svg width="10" height="10" viewBox="0 0 10 10" fill="none" xmlns="http://www.w3.org/2000/svg">
<path d="M9.35375 1.35372L2.20687 8.49997H7.5C7.63261 8.49997 7.75979 8.55265 7.85355 8.64642C7.94732 8.74019 8 8.86736 8 8.99997C8 9.13258 7.94732 9.25976 7.85355 9.35353C7.75979 9.4473 7.63261 9.49997 7.5 9.49997H1C0.867392 9.49997 0.740215 9.4473 0.646447 9.35353C0.552679 9.25976 0.5 9.13258 0.5 8.99997V2.49997C0.5 2.36736 0.552679 2.24019 0.646447 2.14642C0.740215 2.05265 0.867392 1.99997 1 1.99997C1.13261 1.99997 1.25979 2.05265 1.35355 2.14642C1.44732 2.24019 1.5 2.36736 1.5 2.49997V7.7931L8.64625 0.646223C8.69271 0.599768 8.74786 0.562918 8.80855 0.537776C8.86925 0.512635 8.9343 0.499695 9 0.499695C9.0657 0.499695 9.13075 0.512635 9.19145 0.537776C9.25214 0.562918 9.30729 0.599768 9.35375 0.646223C9.40021 0.692678 9.43705 0.747828 9.4622 0.808525C9.48734 0.869221 9.50028 0.934275 9.50028 0.999973C9.50028 1.06567 9.48734 1.13072 9.4622 1.19142C9.43705 1.25212 9.40021 1.30727 9.35375 1.35372Z" fill="white"/>
</svg>
