<svg width="13" height="8" viewBox="0 0 13 8" fill="none" xmlns="http://www.w3.org/2000/svg">
<path d="M11.885 5.57878C11.9697 5.6804 12.0107 5.81147 11.999 5.94326C11.9873 6.07505 11.9238 6.19683 11.8225 6.28191C10.7375 7.18066 9.76876 7.50003 8.88501 7.50003C7.72376 7.50003 6.70876 6.94941 5.76439 6.43753C4.18001 5.57816 2.81189 4.83566 0.822513 6.48378C0.772371 6.52823 0.713806 6.56215 0.650299 6.58351C0.586791 6.60488 0.519636 6.61327 0.452824 6.60817C0.386012 6.60308 0.320905 6.58461 0.261372 6.55385C0.20184 6.5231 0.149095 6.4807 0.106273 6.42916C0.0634512 6.37762 0.0314246 6.318 0.0120968 6.25385C-0.007231 6.18969 -0.0134658 6.1223 -0.00623735 6.05568C0.000991073 5.98907 0.0215353 5.92458 0.0541748 5.86607C0.0868144 5.80755 0.130883 5.75619 0.183763 5.71503C2.69439 3.63566 4.57876 4.65753 6.24189 5.56003C7.82626 6.41941 9.19439 7.16128 11.1838 5.51316C11.2857 5.42937 11.4166 5.38925 11.5479 5.40155C11.6793 5.41384 11.8004 5.47754 11.885 5.57878ZM0.822513 2.48753C2.81189 0.839407 4.18001 1.58128 5.76439 2.44066C6.70876 2.95316 7.72376 3.50316 8.88501 3.50316C9.76876 3.50316 10.7375 3.18378 11.8225 2.28503C11.8754 2.24388 11.9195 2.19252 11.9521 2.134C11.9847 2.07548 12.0053 2.011 12.0125 1.94438C12.0197 1.87777 12.0135 1.81038 11.9942 1.74622C11.9749 1.68206 11.9428 1.62244 11.9 1.5709C11.8572 1.51937 11.8044 1.47696 11.7449 1.44621C11.6854 1.41546 11.6203 1.39699 11.5535 1.39189C11.4866 1.38679 11.4195 1.39518 11.356 1.41655C11.2925 1.43792 11.2339 1.47183 11.1838 1.51628C9.19439 3.16441 7.82626 2.42191 6.24189 1.56253C4.57876 0.660657 2.69439 -0.361843 0.183763 1.71753C0.0898702 1.80424 0.0327438 1.92361 0.0241183 2.05112C0.0154928 2.17863 0.0560231 2.30461 0.137384 2.40317C0.218745 2.50173 0.334759 2.56539 0.461596 2.58108C0.588433 2.59677 0.716463 2.5633 0.819388 2.48753H0.822513Z" fill="white"/>
</svg>
