<svg width="21" height="20" viewBox="0 0 21 20" fill="none" xmlns="http://www.w3.org/2000/svg">
<path d="M10.5 0.25C8.57164 0.25 6.68657 0.821828 5.08319 1.89317C3.47982 2.96451 2.23013 4.48726 1.49218 6.26884C0.754225 8.05042 0.561142 10.0108 0.937348 11.9021C1.31355 13.7934 2.24215 15.5307 3.60571 16.8943C4.96928 18.2579 6.70656 19.1865 8.59787 19.5627C10.4892 19.9389 12.4496 19.7458 14.2312 19.0078C16.0127 18.2699 17.5355 17.0202 18.6068 15.4168C19.6782 13.8134 20.25 11.9284 20.25 10C20.2473 7.41498 19.2192 4.93661 17.3913 3.10872C15.5634 1.28084 13.085 0.25273 10.5 0.25ZM10.5 18.25C8.86831 18.25 7.27326 17.7661 5.91655 16.8596C4.55984 15.9531 3.50242 14.6646 2.878 13.1571C2.25358 11.6496 2.0902 9.99085 2.40853 8.3905C2.72685 6.79016 3.51259 5.32015 4.66637 4.16637C5.82016 3.01259 7.29017 2.22685 8.89051 1.90852C10.4909 1.59019 12.1497 1.75357 13.6571 2.37799C15.1646 3.00242 16.4531 4.05984 17.3596 5.41655C18.2661 6.77325 18.75 8.3683 18.75 10C18.7475 12.1873 17.8775 14.2843 16.3309 15.8309C14.7843 17.3775 12.6873 18.2475 10.5 18.25ZM14.25 8.5C14.2501 7.87061 14.0919 7.25132 13.7898 6.69918C13.4876 6.14704 13.0514 5.67982 12.5213 5.34058C11.9912 5.00133 11.3842 4.80097 10.7563 4.75796C10.1284 4.71495 9.49971 4.83068 8.92827 5.09447C8.35684 5.35826 7.86099 5.76164 7.48642 6.26743C7.11185 6.77322 6.8706 7.36515 6.78492 7.98867C6.69923 8.6122 6.77186 9.24726 6.99612 9.83534C7.22037 10.4234 7.58903 10.9456 8.06813 11.3538L6.81375 14.1972C6.76337 14.3114 6.74227 14.4363 6.75237 14.5607C6.76247 14.6851 6.80345 14.805 6.8716 14.9095C6.93975 15.0141 7.03291 15.1 7.14264 15.1594C7.25237 15.2189 7.3752 15.25 7.5 15.25H13.5C13.6248 15.25 13.7476 15.2189 13.8574 15.1594C13.9671 15.1 14.0603 15.0141 14.1284 14.9095C14.1966 14.805 14.2375 14.6851 14.2476 14.5607C14.2577 14.4363 14.2366 14.3114 14.1863 14.1972L12.9319 11.3538C13.3443 11.0012 13.6757 10.5637 13.9032 10.0711C14.1307 9.57853 14.249 9.04258 14.25 8.5ZM11.3138 11.4062L12.345 13.7547H8.65032L9.68157 11.4062C9.75801 11.2371 9.76897 11.0455 9.71234 10.8687C9.65571 10.6919 9.53551 10.5424 9.375 10.4491C8.94606 10.2014 8.61082 9.81914 8.42128 9.36154C8.23173 8.90394 8.19848 8.39659 8.32667 7.91816C8.45486 7.43974 8.73734 7.01698 9.13029 6.71546C9.52324 6.41394 10.0047 6.25051 10.5 6.25051C10.9953 6.25051 11.4768 6.41394 11.8697 6.71546C12.2627 7.01698 12.5451 7.43974 12.6733 7.91816C12.8015 8.39659 12.7683 8.90394 12.5787 9.36154C12.3892 9.81914 12.0539 10.2014 11.625 10.4491C11.4637 10.5416 11.3425 10.6908 11.285 10.8677C11.2275 11.0446 11.2377 11.2365 11.3138 11.4062Z" fill="white"/>
</svg>
