<svg width="12" height="12" viewBox="0 0 12 12" fill="none" xmlns="http://www.w3.org/2000/svg">
<path d="M3.5 4.5H0.5C0.367392 4.5 0.240215 4.44732 0.146447 4.35355C0.0526785 4.25979 0 4.13261 0 4V1C0 0.867393 0.0526785 0.740216 0.146447 0.646448C0.240215 0.552679 0.367392 0.500001 0.5 0.500001C0.632608 0.500001 0.759785 0.552679 0.853553 0.646448C0.947321 0.740216 1 0.867393 1 1V2.79313L1.91438 1.87875C3.02951 0.758005 4.544 0.125863 6.125 0.121251H6.15812C7.72568 0.117213 9.23171 0.730898 10.35 1.82938C10.4413 1.92279 10.4924 2.04823 10.4924 2.17885C10.4925 2.30948 10.4413 2.43492 10.35 2.52835C10.2587 2.62177 10.1345 2.67575 10.0039 2.67875C9.87332 2.68174 9.74674 2.63351 9.65125 2.54438C8.71911 1.62942 7.46427 1.11819 6.15812 1.12125H6.13C4.81261 1.12531 3.55067 1.65198 2.62125 2.58563L1.70688 3.5H3.5C3.63261 3.5 3.75979 3.55268 3.85355 3.64645C3.94732 3.74022 4 3.86739 4 4C4 4.13261 3.94732 4.25979 3.85355 4.35355C3.75979 4.44732 3.63261 4.5 3.5 4.5ZM11.5 7.5H8.5C8.36739 7.5 8.24021 7.55268 8.14645 7.64645C8.05268 7.74022 8 7.86739 8 8C8 8.13261 8.05268 8.25979 8.14645 8.35355C8.24021 8.44732 8.36739 8.5 8.5 8.5H10.2931L9.37875 9.41438C8.44948 10.3479 7.1878 10.8745 5.87063 10.8788H5.8425C4.53636 10.8818 3.28151 10.3706 2.34937 9.45563C2.3028 9.40798 2.24718 9.37013 2.18578 9.34428C2.12437 9.31844 2.05842 9.30513 1.99179 9.30513C1.92517 9.30513 1.85922 9.31845 1.79781 9.3443C1.73641 9.37015 1.68079 9.40802 1.63423 9.45566C1.58766 9.50331 1.55109 9.55979 1.52665 9.62177C1.50222 9.68375 1.49042 9.74999 1.49195 9.8166C1.49348 9.8832 1.5083 9.94883 1.53555 10.0096C1.5628 10.0704 1.60192 10.1252 1.65062 10.1706C2.76892 11.2691 4.27495 11.8828 5.8425 11.8788H5.875C7.45579 11.874 8.97002 11.2418 10.085 10.1213L11 9.20688V11C11 11.1326 11.0527 11.2598 11.1464 11.3536C11.2402 11.4473 11.3674 11.5 11.5 11.5C11.6326 11.5 11.7598 11.4473 11.8536 11.3536C11.9473 11.2598 12 11.1326 12 11V8C12 7.86739 11.9473 7.74022 11.8536 7.64645C11.7598 7.55268 11.6326 7.5 11.5 7.5Z" fill="white"/>
</svg>
