<svg width="20" height="20" viewBox="0 0 20 20" fill="none" xmlns="http://www.w3.org/2000/svg">
<path d="M10 5.49998C9.11003 5.49998 8.24 5.7639 7.49998 6.25837C6.75995 6.75283 6.18318 7.45564 5.84259 8.27791C5.50199 9.10017 5.41288 10.005 5.58651 10.8779C5.76014 11.7508 6.18873 12.5526 6.81806 13.182C7.4474 13.8113 8.24922 14.2399 9.12214 14.4135C9.99505 14.5871 10.8998 14.498 11.7221 14.1574C12.5444 13.8168 13.2472 13.2401 13.7417 12.5C14.2361 11.76 14.5 10.89 14.5 9.99998C14.4988 8.80689 14.0243 7.66302 13.1807 6.81937C12.337 5.97573 11.1931 5.50122 10 5.49998ZM10 13C9.4067 13 8.82668 12.824 8.33333 12.4944C7.83998 12.1647 7.45547 11.6962 7.2284 11.148C7.00134 10.5999 6.94193 9.99665 7.05769 9.41471C7.17344 8.83277 7.45916 8.29822 7.87872 7.87866C8.29828 7.4591 8.83283 7.17338 9.41477 7.05763C9.99671 6.94187 10.5999 7.00128 11.1481 7.22834C11.6963 7.45541 12.1648 7.83992 12.4945 8.33327C12.8241 8.82662 13 9.40664 13 9.99998C13 10.7956 12.684 11.5587 12.1214 12.1213C11.5588 12.6839 10.7957 13 10 13ZM18.25 10.2025C18.2538 10.0675 18.2538 9.93248 18.25 9.79748L19.6488 8.04998C19.7221 7.95823 19.7729 7.85053 19.797 7.73557C19.8211 7.62061 19.8179 7.50159 19.7875 7.38811C19.5582 6.52617 19.2152 5.69859 18.7675 4.92717C18.7089 4.82622 18.6275 4.74034 18.5299 4.67638C18.4322 4.61242 18.321 4.57213 18.205 4.55873L15.9813 4.31123C15.8888 4.21373 15.795 4.11998 15.7 4.02998L15.4375 1.80061C15.424 1.68456 15.3836 1.57326 15.3195 1.4756C15.2554 1.37794 15.1693 1.29662 15.0682 1.23811C14.2965 0.791244 13.4689 0.448576 12.6072 0.219044C12.4937 0.188854 12.3746 0.185766 12.2596 0.21003C12.1447 0.234293 12.037 0.285229 11.9454 0.358732L10.2025 1.74998C10.0675 1.74998 9.93254 1.74998 9.79754 1.74998L8.05004 0.354044C7.95829 0.280702 7.85059 0.229936 7.73563 0.205836C7.62067 0.181736 7.50165 0.184976 7.38817 0.215294C6.52637 0.445007 5.69884 0.787997 4.92723 1.23529C4.82628 1.29391 4.7404 1.37529 4.67644 1.47294C4.61248 1.57059 4.57219 1.68183 4.55879 1.79779L4.31129 4.02529C4.21379 4.11842 4.12004 4.21217 4.03004 4.30654L1.80067 4.56248C1.68462 4.57598 1.57332 4.61641 1.47566 4.68054C1.37801 4.74467 1.29668 4.83073 1.23817 4.93186C0.791305 5.70357 0.448637 6.53108 0.219105 7.39279C0.188915 7.50635 0.185827 7.62541 0.210091 7.74037C0.234354 7.85534 0.28529 7.963 0.358793 8.05467L1.75004 9.79748C1.75004 9.93248 1.75004 10.0675 1.75004 10.2025L0.354105 11.95C0.280763 12.0417 0.229997 12.1494 0.205897 12.2644C0.181797 12.3794 0.185037 12.4984 0.215355 12.6119C0.444658 13.4738 0.78767 14.3014 1.23536 15.0728C1.29397 15.1737 1.37535 15.2596 1.473 15.3236C1.57065 15.3875 1.68189 15.4278 1.79785 15.4412L4.02161 15.6887C4.11473 15.7862 4.20848 15.88 4.30286 15.97L4.56254 18.1994C4.57604 18.3154 4.61647 18.4267 4.6806 18.5244C4.74473 18.622 4.83079 18.7033 4.93192 18.7619C5.70363 19.2087 6.53114 19.5514 7.39286 19.7809C7.50641 19.8111 7.62547 19.8142 7.74044 19.7899C7.8554 19.7657 7.96306 19.7147 8.05473 19.6412L9.79754 18.25C9.93254 18.2537 10.0675 18.2537 10.2025 18.25L11.95 19.6487C12.0418 19.7221 12.1495 19.7728 12.2645 19.7969C12.3794 19.821 12.4984 19.8178 12.6119 19.7875C13.4739 19.5582 14.3014 19.2152 15.0729 18.7675C15.1738 18.7089 15.2597 18.6275 15.3236 18.5298C15.3876 18.4322 15.4279 18.3209 15.4413 18.205L15.6888 15.9812C15.7863 15.8887 15.88 15.795 15.97 15.7L18.1994 15.4375C18.3155 15.424 18.4268 15.3836 18.5244 15.3194C18.6221 15.2553 18.7034 15.1692 18.7619 15.0681C19.2088 14.2964 19.5514 13.4689 19.781 12.6072C19.8112 12.4936 19.8143 12.3746 19.79 12.2596C19.7657 12.1446 19.7148 12.037 19.6413 11.9453L18.25 10.2025ZM16.7407 9.59311C16.7566 9.86412 16.7566 10.1358 16.7407 10.4069C16.7295 10.5924 16.7876 10.7755 16.9038 10.9206L18.2341 12.5828C18.0815 13.0679 17.886 13.5385 17.65 13.989L15.5313 14.229C15.3468 14.2495 15.1764 14.3377 15.0532 14.4765C14.8727 14.6795 14.6805 14.8717 14.4775 15.0522C14.3387 15.1754 14.2505 15.3458 14.23 15.5303L13.9947 17.6472C13.5443 17.8832 13.0736 18.0787 12.5885 18.2312L10.9254 16.9009C10.7923 16.7946 10.627 16.7367 10.4566 16.7369H10.4116C10.1406 16.7528 9.86887 16.7528 9.59785 16.7369C9.41231 16.7257 9.22922 16.7838 9.08411 16.9L7.41723 18.2312C6.9321 18.0786 6.4615 17.8831 6.01098 17.6472L5.77098 15.5312C5.7505 15.3467 5.66231 15.1764 5.52348 15.0531C5.32052 14.8726 5.12831 14.6804 4.94785 14.4775C4.8246 14.3386 4.65424 14.2505 4.46973 14.23L2.35286 13.9937C2.11679 13.5433 1.92132 13.0726 1.76879 12.5875L3.0991 10.9244C3.21527 10.7792 3.2734 10.5962 3.26223 10.4106C3.24629 10.1396 3.24629 9.86787 3.26223 9.59686C3.2734 9.41131 3.21527 9.22822 3.0991 9.08311L1.76879 7.41717C1.92144 6.93204 2.1169 6.46144 2.35286 6.01092L4.46879 5.77092C4.65331 5.75044 4.82367 5.66225 4.94692 5.52342C5.12738 5.32046 5.31958 5.12825 5.52254 4.94779C5.66193 4.82446 5.75048 4.65371 5.77098 4.46873L6.00629 2.35279C6.45676 2.11672 6.92737 1.92126 7.41254 1.76873L9.07567 3.09904C9.22079 3.21521 9.40387 3.27334 9.58942 3.26217C9.86043 3.24623 10.1322 3.24623 10.4032 3.26217C10.5887 3.27334 10.7718 3.21521 10.9169 3.09904L12.5829 1.76873C13.068 1.92138 13.5386 2.11684 13.9891 2.35279L14.2291 4.46873C14.2496 4.65325 14.3378 4.82361 14.4766 4.94686C14.6796 5.12732 14.8718 5.31952 15.0522 5.52248C15.1755 5.66131 15.3458 5.7495 15.5304 5.76998L17.6472 6.00529C17.8833 6.45577 18.0788 6.92638 18.2313 7.41154L16.901 9.07467C16.7837 9.22101 16.7255 9.40598 16.7379 9.59311H16.7407Z" fill="white"/>
</svg>
