<svg width="22" height="22" viewBox="0 0 22 22" fill="none" xmlns="http://www.w3.org/2000/svg">
<g clip-path="url(#clip0_33_3039)">
<path fill-rule="evenodd" clip-rule="evenodd" d="M22 11C22 17.0741 17.0741 22 11 22C4.9259 22 0 17.0741 0 11C0 4.9259 4.9259 0 11 0C17.0741 0 22 4.9259 22 11Z" fill="#29296E"/>
<path fill-rule="evenodd" clip-rule="evenodd" d="M16.1538 8.0637L15.8733 7.20473C15.8207 7.02943 15.6805 6.89796 15.5052 6.83661L14.6462 6.57366C14.5235 6.5386 14.5235 6.37206 14.6462 6.32824L15.5052 6.04776C15.6805 5.99517 15.8119 5.85493 15.8733 5.67963L16.1362 4.82067C16.1713 4.69796 16.3378 4.69796 16.3817 4.82067L16.6621 5.67963C16.7147 5.85493 16.855 5.98641 17.0303 6.04776L17.8892 6.31071C18.0119 6.34577 18.0119 6.5123 17.8892 6.55613L17.0303 6.83661C16.855 6.8892 16.7235 7.02943 16.6621 7.20473L16.3992 8.0637C16.3554 8.17764 16.1888 8.17764 16.1538 8.0637Z" fill="#FAFAFA"/>
<path fill-rule="evenodd" clip-rule="evenodd" d="M0.964142 10.8247C1.22709 10.3076 1.74422 9.91314 2.28765 9.66772C2.83107 9.4223 3.42709 9.2733 4.01434 9.22947C5.19761 9.12429 6.35458 9.31712 7.40637 9.66772C7.9498 9.83425 8.43187 10.0534 8.93147 10.2813C9.17689 10.3952 9.40478 10.5354 9.64143 10.6669L10.29 11.0438C11.0088 11.4821 11.7012 11.8765 12.3498 12.1833C13.0072 12.4813 13.5944 12.6916 14.1466 12.7968C14.6988 12.902 15.2685 12.902 15.961 12.7442C16.6534 12.5864 17.4247 12.2446 18.2398 11.8151C19.055 11.3769 19.8964 10.8422 20.8518 10.3251C20.7554 11.4119 20.4486 12.4374 19.9753 13.4279C19.4845 14.4008 18.8008 15.3562 17.8104 16.1275C16.8374 16.9076 15.4964 17.4422 14.1378 17.5299C12.7705 17.6263 11.4821 17.3195 10.3777 16.8637C9.27331 16.3992 8.30916 15.7944 7.46773 15.1283C7.23107 14.9442 7.10837 14.839 6.93307 14.69L6.45099 14.2605C6.12669 14.0064 5.81115 13.6996 5.48685 13.4454C4.84701 12.8844 4.20717 12.341 3.50597 11.8765C3.15538 11.6398 2.79601 11.4119 2.38406 11.2191C2.18247 11.1227 1.96335 11.035 1.72669 10.9649C1.49004 10.886 1.25338 10.8422 0.964142 10.8247Z" fill="#FF4F0A"/>
<path fill-rule="evenodd" clip-rule="evenodd" d="M0.964142 10.8422C1.09562 9.7291 1.61275 8.68607 2.44542 7.80081C3.26932 6.92432 4.56653 6.24066 5.99522 6.15301C6.70518 6.10918 7.4239 6.18807 8.08127 6.36336C8.73864 6.54743 9.35219 6.81038 9.91315 7.12591C10.1936 7.28368 10.4478 7.45898 10.7108 7.62552L11.4032 8.15141L12.4813 9.00161C13.1825 9.5538 13.8486 10.0709 14.4622 10.5004C15.0845 10.9299 15.6104 11.2367 16.1187 11.4207C16.6183 11.6223 17.2494 11.6662 18.0908 11.4558C18.5028 11.3594 18.941 11.1841 19.4056 10.9913C19.8614 10.7984 20.3434 10.5618 20.8693 10.3339C20.808 10.8948 20.694 11.447 20.4749 11.9729C20.2645 12.4988 19.9928 13.016 19.6159 13.498C19.4231 13.7347 19.2127 13.9713 18.9673 14.1817C18.7219 14.392 18.4502 14.5936 18.1522 14.7689C17.5562 15.1108 16.8462 15.365 16.1187 15.4614C15.3912 15.549 14.6637 15.5052 13.9976 15.365C13.3315 15.2247 12.7267 15.0056 12.1657 14.7514C11.0526 14.2343 10.1235 13.5857 9.2996 12.8932C8.88765 12.5514 8.50199 12.192 8.13386 11.8239L7.70438 11.3857C7.57291 11.263 7.44143 11.1315 7.30996 11.0175C6.78406 10.553 6.29323 10.1936 5.75856 9.97452C5.2239 9.73787 4.54024 9.65022 3.6988 9.80799C2.85737 9.97452 1.94582 10.3339 0.964142 10.8422Z" fill="#FAFAFA"/>
<path fill-rule="evenodd" clip-rule="evenodd" d="M5.43428 16.5657C5.43428 16.9075 5.16256 17.1792 4.82073 17.1792C4.4789 17.1792 4.20718 16.9075 4.20718 16.5657C4.20718 16.2239 4.4789 15.9521 4.82073 15.9521C5.16256 15.9521 5.43428 16.2239 5.43428 16.5657Z" fill="#FAFAFA"/>
<path fill-rule="evenodd" clip-rule="evenodd" d="M5.43428 16.5657C5.43428 16.9075 5.16256 17.1792 4.82073 17.1792C4.4789 17.1792 4.20718 16.9075 4.20718 16.5657C4.20718 16.2239 4.4789 15.9521 4.82073 15.9521C5.16256 15.9521 5.43428 16.2239 5.43428 16.5657Z" fill="#FAFAFA"/>
</g>
<defs>
<clipPath id="clip0_33_3039">
<rect width="22" height="22" fill="white"/>
</clipPath>
</defs>
</svg>
