<svg width="18" height="26" viewBox="0 0 18 26" fill="none" xmlns="http://www.w3.org/2000/svg">
<path d="M3.06383 18.1449V5.05722C3.06383 4.72474 2.66925 4.55019 2.42323 4.77384L0.125359 6.86282C0.0455181 6.9354 0 7.0383 0 7.1462V20.0664C0 20.1973 0.0668973 20.3192 0.177367 20.3895L7.83694 25.2637C8.0919 25.426 8.42553 25.2428 8.42553 24.9406V1.0773C8.42553 0.771413 8.08463 0.588965 7.83012 0.758639L5.14926 2.54587C5.04272 2.6169 4.97872 2.73648 4.97872 2.86453V18.8342C4.97872 19.1319 4.65397 19.3158 4.3987 19.1626L3.24977 18.4733C3.13441 18.404 3.06383 18.2794 3.06383 18.1449Z" fill="#31BF90"/>
<path d="M14.9362 18.1447V5.0571C14.9362 4.72462 15.3308 4.55007 15.5768 4.77372L17.8746 6.8627C17.9545 6.93528 18 7.03818 18 7.14608V20.0662C18 20.1972 17.9331 20.319 17.8226 20.3893L10.1631 25.2636C9.9081 25.4259 9.57447 25.2427 9.57447 24.9405V1.07717C9.57447 0.771291 9.91537 0.588843 10.1699 0.758517L12.8507 2.54575C12.9573 2.61678 13.0213 2.73636 13.0213 2.86441V18.8341C13.0213 19.1318 13.346 19.3157 13.6013 19.1625L14.7502 18.4731C14.8656 18.4039 14.9362 18.2793 14.9362 18.1447Z" fill="url(#paint0_linear_570_1242)"/>
<circle cx="11.4893" cy="4.19137" r="0.765957" fill="#D9D9D9"/>
<defs>
<linearGradient id="paint0_linear_570_1242" x1="9.95745" y1="14.1488" x2="18.383" y2="14.1488" gradientUnits="userSpaceOnUse">
<stop stop-color="#06776B"/>
<stop offset="1" stop-color="#046065"/>
</linearGradient>
</defs>
</svg>
