<svg width="10" height="10" viewBox="0 0 10 10" fill="none" xmlns="http://www.w3.org/2000/svg">
<path d="M0.64625 8.64628L7.79313 1.50003H2.5C2.36739 1.50003 2.24021 1.44735 2.14645 1.35358C2.05268 1.25981 2 1.13264 2 1.00003C2 0.867418 2.05268 0.740241 2.14645 0.646473C2.24021 0.552705 2.36739 0.500027 2.5 0.500027H9C9.13261 0.500027 9.25979 0.552705 9.35355 0.646473C9.44732 0.740241 9.5 0.867418 9.5 1.00003V7.50003C9.5 7.63264 9.44732 7.75981 9.35355 7.85358C9.25979 7.94735 9.13261 8.00003 9 8.00003C8.86739 8.00003 8.74021 7.94735 8.64645 7.85358C8.55268 7.75981 8.5 7.63264 8.5 7.50003V2.2069L1.35375 9.35378C1.30729 9.40023 1.25214 9.43708 1.19145 9.46222C1.13075 9.48737 1.0657 9.50031 1 9.50031C0.934302 9.50031 0.869248 9.48737 0.808552 9.46222C0.747855 9.43708 0.692705 9.40023 0.64625 9.35378C0.599794 9.30732 0.562945 9.25217 0.537804 9.19148C0.512662 9.13078 0.499722 9.06572 0.499722 9.00003C0.499722 8.93433 0.512662 8.86928 0.537804 8.80858C0.562945 8.74788 0.599794 8.69273 0.64625 8.64628Z" fill="white"/>
</svg>
