<svg width="32" height="32" viewBox="0 0 32 32" fill="none" xmlns="http://www.w3.org/2000/svg">
  <!-- Outer ring - represents security/blockchain -->
  <circle
    cx="16"
    cy="16"
    r="14"
    stroke="url(#gradient1)"
    strokeWidth="2"
    fill="none"
  />
  
  <!-- Inner hexagon - represents crypto/blockchain structure -->
  <path
    d="M16 6L24 10V22L16 26L8 22V10L16 6Z"
    fill="url(#gradient2)"
    stroke="url(#gradient1)"
    strokeWidth="1"
  />
  
  <!-- Central P symbol -->
  <path
    d="M13 11H18C19.5 11 20.5 12 20.5 13.5C20.5 15 19.5 16 18 16H13V21M13 11V16M13 16H18"
    stroke="white"
    strokeWidth="1.5"
    strokeLinecap="round"
    strokeLinejoin="round"
    fill="none"
  />
  
  <!-- Crypto dots - representing digital currency -->
  <circle cx="23" cy="10" r="1.5" fill="url(#gradient3)" />
  <circle cx="26" cy="16" r="1" fill="url(#gradient3)" />
  <circle cx="23" cy="22" r="1" fill="url(#gradient3)" />
  
  <!-- Gradients -->
  <defs>
    <linearGradient id="gradient1" x1="0%" y1="0%" x2="100%" y2="100%">
      <stop offset="0%" stopColor="#3B82F6" />
      <stop offset="50%" stopColor="#8B5CF6" />
      <stop offset="100%" stopColor="#06B6D4" />
    </linearGradient>
    <linearGradient id="gradient2" x1="0%" y1="0%" x2="100%" y2="100%">
      <stop offset="0%" stopColor="#1E40AF" />
      <stop offset="50%" stopColor="#7C3AED" />
      <stop offset="100%" stopColor="#0891B2" />
    </linearGradient>
    <linearGradient id="gradient3" x1="0%" y1="0%" x2="100%" y2="100%">
      <stop offset="0%" stopColor="#F59E0B" />
      <stop offset="100%" stopColor="#EF4444" />
    </linearGradient>
  </defs>
</svg>